<?xml version="1.0" encoding="UTF-8"?>
<svg width="138px" height="15px" viewBox="0 0 138 15" version="1.1" xmlns="http://www.w3.org/2000/svg" xmlns:xlink="http://www.w3.org/1999/xlink">
    <!-- Generator: Sketch 49.2 (51160) - http://www.bohemiancoding.com/sketch -->
    <title>标题装饰元素-内容列表-默认</title>
    <desc>Created with Sketch.</desc>
    <defs></defs>
    <g id="页面" stroke="none" stroke-width="1" fill="none" fill-rule="evenodd">
        <g id="文章详情页" transform="translate(-257.000000, -3742.000000)" fill="#DADADA" fill-rule="nonzero">
            <g id="文章" transform="translate(161.000000, 3738.000000)">
                <g id="栏目标题装饰元素" transform="translate(96.000000, 4.000000)">
                    <polygon id="Line-Copy-16" points="112 0.555555556 112.921986 0 122 14.4444444 121.078014 15"></polygon>
                    <polygon id="Line-Copy-8" points="48 0.555555556 48.9219858 0 58 14.4444444 57.0780142 15"></polygon>
                    <polygon id="Line-Copy-4" points="16 0.555555556 16.8516583 0 25.2372171 14.4444444 24.3855588 15"></polygon>
                    <polygon id="Line-Copy-9" points="80 0.555555556 80.9219858 0 90 14.4444444 89.0780142 15"></polygon>
                    <polygon id="Line-Copy-20" points="120 0.555555556 120.921986 0 130 14.4444444 129.078014 15"></polygon>
                    <polygon id="Line-Copy-10" points="56 0.555555556 56.9219858 0 66 14.4444444 65.0780142 15"></polygon>
                    <polygon id="Line-Copy-5" points="24 0.555555556 24.9219858 0 34 14.4444444 33.0780142 15"></polygon>
                    <polygon id="Line-Copy-11" points="88 0.555555556 88.9219858 0 98 14.4444444 97.0780142 15"></polygon>
                    <polygon id="Line-Copy-2" points="0 0.555555556 0.921985816 0 10 14.4444444 9.07801418 15"></polygon>
                    <polygon id="Line-Copy-24" points="128 0.555555556 128.921986 0 138 14.4444444 137.078014 15"></polygon>
                    <polygon id="Line-Copy-12" points="64 0.555555556 64.9219858 0 74 14.4444444 73.0780142 15"></polygon>
                    <polygon id="Line-Copy-6" points="32 0.555555556 32.9219858 0 42 14.4444444 41.0780142 15"></polygon>
                    <polygon id="Line-Copy-13" points="96 0.555555556 96.9219858 0 106 14.4444444 105.078014 15"></polygon>
                    <polygon id="Line-Copy-3" points="8 0.555555556 8.92198582 0 18 14.4444444 17.0780142 15"></polygon>
                    <polygon id="Line-Copy-14" points="72 0.555555556 72.9219858 0 82 14.4444444 81.0780142 15"></polygon>
                    <polygon id="Line-Copy-7" points="40 0.555555556 40.9219858 0 50 14.4444444 49.0780142 15"></polygon>
                    <polygon id="Line-Copy-15" points="104 0.555555556 104.921986 0 114 14.4444444 113.078014 15"></polygon>
                </g>
            </g>
        </g>
    </g>
</svg>