<?xml version="1.0" encoding="UTF-8"?>
<svg width="240px" height="240px" viewBox="0 0 240 240" version="1.1" xmlns="http://www.w3.org/2000/svg" xmlns:xlink="http://www.w3.org/1999/xlink">
    <!-- Generator: Sketch 49.3 (51167) - http://www.bohemiancoding.com/sketch -->
    <title>Logo-头部背景-默认</title>
    <desc>Created with Sketch.</desc>
    <defs>
        <linearGradient x1="50%" y1="0%" x2="50%" y2="100%" id="linearGradient-1">
            <stop stop-color="#FFFFFF" stop-opacity="0" offset="0%"></stop>
            <stop stop-color="#FFFFFF" stop-opacity="0.618408203" offset="44.7875977%"></stop>
            <stop stop-color="#FFFFFF" offset="100%"></stop>
        </linearGradient>
    </defs>
    <g id="页面" stroke="none" stroke-width="1" fill="none" fill-rule="evenodd">
        <g id="主页" transform="translate(-160.000000, -96.000000)">
            <g id="Logo-白色" transform="translate(160.000000, 96.000000)">
                <path d="M0,0 L240,0 L240,240 L0,240 L0,0 Z M2,2 L2,238 L238,238 L238,2 L2,2 Z" id="Rectangle-18" fill="#FFFFFF" fill-rule="nonzero" opacity="0.8"></path>
                <polygon id="Rectangle-2-Copy-2" fill="url(#linearGradient-1)" points="24 24 64.425 24 129 129 88.575 129"></polygon>
                <g id="Group-3-Copy-3" transform="translate(17.478261, 152.000000)" fill="#FFFFFF">
                    <polygon id="Fill-3" points="1.58836833 33.4921712 7.05592754 33.4921712 7.05592754 11.072337 1.58836833 11.072337"></polygon>
                    <path d="M4.321961,0.45807875 C6.37117407,0.45807875 8.03230411,2.11920878 8.03230411,4.16842186 C8.03230411,6.21763493 6.37117407,7.87913884 4.321961,7.87913884 C2.27274792,7.87913884 0.611617889,6.21763493 0.611617889,4.16842186 C0.611617889,2.11920878 2.27274792,0.45807875 4.321961,0.45807875" id="Fill-4"></path>
                    <path d="M87.5881695,10.6712057 C86.6138492,10.6813003 85.0222601,10.6091423 83.8314658,10.9516125 C83.8314658,10.9516125 81.8140321,11.3542767 80.3439526,13.3840482 L80.3439526,11.0245183 L74.8763934,11.0245183 L74.8763934,33.4966951 L80.3439526,33.4966951 L80.3439526,19.1140682 C80.3439526,19.1140682 81.251723,16.6218124 84.7440965,16.0714673 C84.7440965,16.0714673 85.9999452,15.9181782 87.5863001,16.0217418 C87.5948992,15.8733131 87.5874217,10.9654459 87.5881695,10.6712057" id="Fill-6"></path>
                    <path d="M72.0829432,18.8415128 C71.782721,14.2428409 68.7218001,10.7343907 64.0322763,10.6614849 L62.7229634,10.6614849 C60.5612137,10.7287825 58.5123745,11.6249628 56.9727541,13.0580286 L56.9727541,11.0805996 L51.5055688,11.0805996 L51.5055688,33.5041726 L56.973128,33.5041726 L56.973128,19.1338837 C57.4285087,17.8888774 58.4443291,16.8233314 59.660547,16.2842026 C63.2987321,14.6716764 66.6591275,17.158698 66.6591275,20.6200398 L66.6602491,33.5015555 L72.1098623,33.4933302 L72.0829432,18.8415128 Z" id="Fill-8"></path>
                    <path d="M26.9319484,11.0809361 L19.5097667,11.0809361 L19.5097667,9.25679627 C19.5097667,7.27413308 21.0714458,5.65786814 23.0294332,5.5565478 L25.3369944,5.56178206 L25.3369944,0.320791568 L22.2607446,0.320791568 C17.6979648,0.320791568 14.0100542,3.92495396 14.0100542,8.48773381 L14.0100542,10.8906334 L14.0100542,11.0805623 L9.29697627,11.0805623 L9.29697627,16.1918179 L14.0100542,16.1918179 L14.0100542,33.4921712 L19.469762,33.4921712 L19.469762,16.1918179 L23.7809235,16.1918179 L26.9319484,11.0809361 Z" id="Fill-10"></path>
                    <path d="M37.3626711,28.4227897 C34.0232127,28.4227897 31.3159783,25.6770461 31.3159783,22.2897316 C31.3159783,18.902791 34.0232127,16.1570474 37.3626711,16.1570474 C39.770431,16.1570474 41.8435721,17.5882439 42.8163969,19.6546552 L42.8163969,24.9251819 C41.8435721,26.9915933 39.770431,28.4227897 37.3626711,28.4227897 Z M42.8163969,11.0805623 L42.8163969,12.4773621 C41.4065114,11.5692179 39.911756,10.6614475 36.7674608,10.6614475 C30.1005082,10.7208938 25.7751394,15.9390778 25.671202,22.3514211 C25.5661429,28.8512513 30.6755291,34.0208315 37.1753593,33.9183896 C39.5651732,33.881002 41.2233122,33.1194171 42.8163969,32.2041692 L42.8163969,33.5033875 L48.2761047,33.5033875 L48.2761047,11.0805623 L42.8163969,11.0805623 Z" id="Fill-12"></path>
                </g>
                <path d="M32.2942609,205.688 L32.2942609,208.488 L30.9822609,208.488 L30.9822609,209.768 L23.8462609,209.768 C23.7342609,210.12 23.6222609,210.456 23.4942609,210.792 L30.4542609,210.792 L30.4542609,211.928 C29.7662609,212.84 28.9342609,213.64 27.9582609,214.312 C29.2702609,214.792 30.7102609,215.112 32.2622609,215.272 L31.5902609,216.648 C29.7342609,216.392 28.0542609,215.912 26.5502609,215.176 C25.1582609,215.912 23.6702609,216.424 22.1022609,216.712 L21.4142609,215.352 C22.7902609,215.16 24.0222609,214.824 25.0782609,214.376 C24.2142609,213.832 23.4142609,213.224 22.6782609,212.536 C21.7662609,214.216 20.5822609,215.544 19.1262609,216.504 L18.4062609,215.192 C20.2142609,213.912 21.5102609,212.104 22.2942609,209.768 L20.0222609,209.768 L20.0222609,208.488 L18.6942609,208.488 L18.6942609,205.688 L21.0622609,205.688 C20.9182609,205.24 20.7582609,204.808 20.5982609,204.424 L22.0862609,204.2 C22.2462609,204.648 22.4062609,205.144 22.5662609,205.688 L24.8222609,205.688 C24.6622609,205.192 24.5022609,204.728 24.3102609,204.296 L25.7822609,204.072 C25.9742609,204.552 26.1502609,205.096 26.3102609,205.688 L28.1502609,205.688 C28.5182609,205.048 28.8382609,204.376 29.1102609,203.688 C26.4222609,203.928 23.2062609,204.056 19.4622609,204.056 L18.9822609,202.648 C23.7982609,202.648 27.8622609,202.44 31.1582609,202.024 L31.9102609,203.352 C31.0462609,203.48 30.1182609,203.592 29.1422609,203.688 L30.5662609,204.2 C30.3262609,204.744 30.0542609,205.24 29.7662609,205.688 L32.2942609,205.688 Z M20.2302609,208.36 L22.6942609,208.36 C22.7582609,208.008 22.8382609,207.672 22.9022609,207.32 L24.4062609,207.512 C24.3422609,207.8 24.2942609,208.088 24.2302609,208.36 L30.7582609,208.36 L30.7582609,207.064 L20.2302609,207.064 L20.2302609,208.36 Z M23.9262609,212.088 C24.6942609,212.696 25.5262609,213.224 26.4222609,213.672 C27.2542609,213.176 27.9742609,212.648 28.5822609,212.088 L23.9262609,212.088 Z M34.3902609,203.208 L38.0062609,203.208 L38.0062609,201.864 L39.5582609,201.864 L39.5582609,203.208 L43.3982609,203.208 L43.3982609,201.864 L44.9502609,201.864 L44.9502609,203.208 L48.5662609,203.208 L48.5662609,204.6 L44.9502609,204.6 L44.9502609,205.96 L43.3982609,205.96 L43.3982609,204.6 L39.5582609,204.6 L39.5582609,205.96 L38.0062609,205.96 L38.0062609,204.6 L34.3902609,204.6 L34.3902609,203.208 Z M36.6302609,205.656 C37.6382609,206.36 38.4862609,207.048 39.1902609,207.752 L38.1502609,208.792 C37.5422609,208.12 36.6782609,207.416 35.5742609,206.664 L36.6302609,205.656 Z M35.6222609,208.376 C36.6142609,209.064 37.4622609,209.752 38.1662609,210.44 L37.1422609,211.48 C36.5342609,210.824 35.6702609,210.12 34.5822609,209.384 L35.6222609,208.376 Z M37.2222609,211.88 L38.5182609,212.504 C37.9262609,213.96 37.1582609,215.368 36.2142609,216.728 L34.8062609,215.992 C35.8142609,214.616 36.6142609,213.24 37.2222609,211.88 Z M45.7822609,207.704 L41.5902609,207.704 L41.5902609,214.216 C41.5902609,214.696 41.8622609,214.952 42.4062609,214.952 L45.4622609,214.952 C46.1502609,214.952 46.5662609,214.808 46.7102609,214.52 C46.8862609,214.2 47.0142609,213.56 47.1102609,212.6 L48.5662609,213.064 C48.4062609,214.664 48.1662609,215.624 47.8302609,215.944 C47.4782609,216.232 46.8382609,216.392 45.9102609,216.392 L41.7502609,216.392 C40.5982609,216.392 40.0382609,215.848 40.0382609,214.776 L40.0382609,206.36 L47.2862609,206.36 L47.2862609,210.872 C47.2702609,211.736 46.7742609,212.184 45.7982609,212.232 C45.1262609,212.232 44.4702609,212.216 43.8302609,212.184 L43.4782609,210.76 C44.1342609,210.824 44.7102609,210.856 45.2062609,210.856 C45.5902609,210.856 45.7822609,210.68 45.7822609,210.344 L45.7822609,207.704 Z M53.8622609,202.312 L55.3822609,202.312 L55.3822609,208.024 C55.3182609,211.96 54.0382609,214.824 51.5422609,216.648 L50.3422609,215.608 C52.6462609,214.024 53.8302609,211.496 53.8622609,208.024 L53.8622609,202.312 Z M62.6462609,216.2 L60.2942609,216.2 C59.1262609,216.2 58.5502609,215.528 58.5502609,214.216 L58.5502609,202.28 L60.0862609,202.28 L60.0862609,213.88 C60.0862609,214.424 60.3102609,214.712 60.7582609,214.712 L62.3742609,214.712 C62.6622609,214.712 62.8702609,214.584 62.9982609,214.344 C63.1582609,214.072 63.2542609,213.256 63.3022609,211.88 L64.7422609,212.344 C64.6142609,214.2 64.3742609,215.32 64.0542609,215.672 C63.7502609,216.024 63.2862609,216.2 62.6462609,216.2 Z M68.5502609,212.712 C68.9662609,212.712 69.3022609,212.872 69.5902609,213.208 C69.8462609,213.56 69.9902609,213.992 69.9902609,214.536 C69.9902609,215.352 69.7502609,216.056 69.2702609,216.664 C68.7902609,217.272 68.1502609,217.688 67.3502609,217.912 L67.3502609,216.92 C67.7822609,216.76 68.1502609,216.52 68.4382609,216.168 C68.7102609,215.8 68.8382609,215.432 68.8382609,215.048 C68.7422609,215.08 68.6142609,215.096 68.4542609,215.096 C68.1182609,215.096 67.8462609,214.984 67.6222609,214.76 C67.3982609,214.536 67.2862609,214.248 67.2862609,213.912 C67.2862609,213.544 67.3982609,213.256 67.6382609,213.032 C67.8622609,212.808 68.1662609,212.712 68.5502609,212.712 Z M90.7902609,201.88 L92.3582609,201.88 L92.3582609,206.872 L96.3742609,206.872 L96.3742609,208.344 L92.3582609,208.344 L92.3582609,214.616 L96.9822609,214.616 L96.9822609,216.104 L87.4622609,216.104 L87.4622609,214.616 L90.7902609,214.616 L90.7902609,201.88 Z M84.2462609,201.992 C85.2862609,202.792 86.1662609,203.576 86.8862609,204.376 L85.8462609,205.432 C85.2062609,204.68 84.3262609,203.88 83.1902609,203.032 L84.2462609,201.992 Z M82.1342609,206.648 L85.8302609,206.648 L85.8302609,213.464 C86.3422609,213.048 86.8702609,212.568 87.4142609,212.04 L87.8142609,213.64 C86.7902609,214.6 85.7022609,215.448 84.5342609,216.184 L83.9582609,214.808 C84.2302609,214.616 84.3742609,214.36 84.3742609,214.072 L84.3742609,208.104 L82.1342609,208.104 L82.1342609,206.648 Z M104.710261,201.944 L106.246261,201.944 L106.246261,204.008 L111.606261,204.008 L111.606261,205.48 L106.246261,205.48 L106.246261,207.96 L112.454261,207.96 L112.454261,209.432 L107.510261,209.432 C108.566261,211.304 110.342261,212.984 112.822261,214.472 L111.750261,215.848 C109.174261,213.928 107.366261,211.8 106.310261,209.432 L106.246261,209.432 L106.246261,216.6 L104.710261,216.6 L104.710261,209.432 L104.646261,209.432 C103.510261,212.024 101.638261,214.168 99.0462609,215.864 L98.1662609,214.44 C100.566261,213.128 102.326261,211.448 103.446261,209.432 L98.5022609,209.432 L98.5022609,207.96 L104.710261,207.96 L104.710261,205.48 L99.4622609,205.48 L99.4622609,204.008 L104.710261,204.008 L104.710261,201.944 Z M117.702261,205.512 C118.214261,206.312 118.694261,207.192 119.158261,208.152 L117.926261,208.776 L120.710261,208.776 L120.710261,205.112 L115.078261,205.112 L115.078261,203.656 L120.710261,203.656 L120.710261,201.944 L122.246261,201.944 L122.246261,203.656 L128.006261,203.656 L128.006261,205.112 L122.246261,205.112 L122.246261,208.776 L123.622261,208.776 C124.198261,207.72 124.678261,206.584 125.094261,205.4 L126.566261,205.928 C126.134261,206.984 125.654261,207.928 125.126261,208.776 L128.470261,208.776 L128.470261,210.232 L123.446261,210.232 C124.566261,211.896 126.406261,213.4 128.982261,214.744 L127.942261,216.056 C125.254261,214.328 123.366261,212.424 122.246261,210.312 L122.246261,216.616 L120.710261,216.616 L120.710261,210.264 C119.686261,212.504 117.718261,214.44 114.806261,216.072 L113.974261,214.696 C116.678261,213.368 118.518261,211.88 119.478261,210.232 L114.454261,210.232 L114.454261,208.776 L117.846261,208.776 C117.382261,207.8 116.886261,206.92 116.374261,206.152 L117.702261,205.512 Z M137.862261,204.584 L140.358261,204.584 L140.358261,201.944 L141.814261,201.944 L141.814261,204.584 L144.342261,204.584 L144.342261,211.304 L141.814261,211.304 L141.814261,214.408 C142.230261,214.312 142.646261,214.232 143.046261,214.152 C142.870261,213.544 142.678261,212.968 142.486261,212.408 L143.734261,212.008 C144.182261,213.224 144.582261,214.616 144.934261,216.184 L143.638261,216.504 C143.558261,216.12 143.478261,215.752 143.382261,215.4 C141.670261,215.784 139.862261,216.136 137.942261,216.424 L137.590261,215 C138.518261,214.904 139.446261,214.792 140.358261,214.648 L140.358261,211.304 L137.862261,211.304 L137.862261,204.584 Z M142.934261,209.928 L142.934261,205.96 L141.750261,205.96 L141.750261,209.928 L142.934261,209.928 Z M140.422261,209.928 L140.422261,205.96 L139.270261,205.96 L139.270261,209.928 L140.422261,209.928 Z M132.134261,209.848 L132.134261,211.64 L133.334261,211.64 L133.334261,209.848 L132.134261,209.848 Z M132.054261,212.904 C131.910261,214.392 131.574261,215.64 131.030261,216.648 L129.926261,215.672 C130.518261,214.568 130.822261,213.176 130.838261,211.496 L130.838261,206.824 L129.958261,205.768 C130.918261,204.808 131.734261,203.496 132.422261,201.816 L133.814261,202.136 C133.686261,202.424 133.574261,202.712 133.446261,202.984 L136.294261,202.984 L136.294261,204.024 C136.006261,204.616 135.702261,205.144 135.414261,205.592 L137.110261,205.592 L137.110261,215.208 C137.110261,216.088 136.694261,216.536 135.862261,216.536 L135.094261,216.536 L134.742261,215.32 C134.998261,215.352 135.238261,215.368 135.462261,215.368 C135.718261,215.368 135.846261,215.16 135.846261,214.76 L135.846261,212.904 L134.582261,212.904 L134.582261,216.36 L133.334261,216.36 L133.334261,212.904 L132.054261,212.904 Z M135.846261,211.64 L135.846261,209.848 L134.582261,209.848 L134.582261,211.64 L135.846261,211.64 Z M135.846261,208.568 L135.846261,206.888 L134.582261,206.888 L134.582261,208.568 L135.846261,208.568 Z M131.942261,205.592 L133.878261,205.592 C134.134261,205.192 134.406261,204.728 134.694261,204.216 L132.838261,204.216 C132.550261,204.712 132.246261,205.176 131.942261,205.592 Z M133.334261,206.888 L132.134261,206.888 L132.134261,208.568 L133.334261,208.568 L133.334261,206.888 Z M158.774261,201.992 L159.526261,203.272 C158.086261,203.656 156.422261,203.944 154.534261,204.136 L154.534261,206.456 L159.494261,206.456 L159.494261,207.928 L154.534261,207.928 L154.534261,210.2 L160.694261,210.2 L160.694261,211.656 L154.534261,211.656 L154.534261,214.936 C154.534261,215.992 153.974261,216.52 152.870261,216.52 L150.390261,216.52 L150.038261,215.048 C150.838261,215.096 151.606261,215.128 152.342261,215.128 C152.790261,215.128 153.014261,214.936 153.014261,214.568 L153.014261,211.656 L146.278261,211.656 L146.278261,210.2 L153.014261,210.2 L153.014261,207.928 L147.606261,207.928 L147.606261,206.456 L153.014261,206.456 L153.014261,204.264 C151.382261,204.376 149.638261,204.44 147.750261,204.44 L147.270261,203.064 C151.830261,203.064 155.670261,202.696 158.774261,201.992 Z M162.310261,202.76 L176.678261,202.76 L176.678261,204.232 L174.662261,204.232 L174.662261,214.808 C174.662261,215.96 174.102261,216.536 173.014261,216.536 L170.326261,216.536 L169.974261,215.064 C170.854261,215.112 171.686261,215.144 172.486261,215.144 C172.918261,215.144 173.142261,214.904 173.142261,214.424 L173.142261,204.232 L162.310261,204.232 L162.310261,202.76 Z M170.566261,206.312 L170.566261,212.472 L165.526261,212.472 L165.526261,213.784 L164.070261,213.784 L164.070261,206.312 L170.566261,206.312 Z M165.526261,211.096 L169.126261,211.096 L169.126261,207.672 L165.526261,207.672 L165.526261,211.096 Z M182.054261,203.944 L179.430261,203.944 L179.430261,202.456 L189.222261,202.456 L189.222261,203.448 C188.934261,204.728 188.630261,205.848 188.342261,206.808 L191.526261,206.808 L191.526261,207.704 C191.062261,209.832 190.102261,211.64 188.646261,213.112 C189.798261,213.928 191.142261,214.664 192.678261,215.32 L191.670261,216.68 C190.038261,215.928 188.630261,215.096 187.462261,214.168 C186.070261,215.24 184.374261,216.104 182.358261,216.76 L181.478261,215.352 C183.350261,214.728 184.918261,213.976 186.198261,213.08 C184.934261,211.848 183.958261,210.488 183.270261,209 C182.694261,212.296 181.366261,214.84 179.286261,216.616 L178.118261,215.592 C180.694261,213.432 182.006261,209.976 182.054261,205.24 L182.054261,203.944 Z M187.382261,212.12 C188.598261,210.984 189.446261,209.672 189.926261,208.2 L186.454261,208.2 C186.790261,207.224 187.158261,205.8 187.558261,203.944 L183.590261,203.944 L183.590261,205.24 C183.590261,205.528 183.574261,205.8 183.574261,206.072 C184.150261,208.392 185.414261,210.408 187.382261,212.12 Z" id="爱范儿，让未来触手可及" fill="#FFFFFF"></path>
            </g>
        </g>
    </g>
</svg>