<?xml version="1.0" encoding="UTF-8"?>
<svg width="127px" height="26px" viewBox="0 0 127 26" version="1.1" xmlns="http://www.w3.org/2000/svg" xmlns:xlink="http://www.w3.org/1999/xlink">
    <!-- Generator: Sketch 49.2 (51160) - http://www.bohemiancoding.com/sketch -->
    <title>logo-头部</title>
    <desc>Created with Sketch.</desc>
    <defs></defs>
    <g id="页面" stroke="none" stroke-width="1" fill="none" fill-rule="evenodd">
        <g id="搜索+推荐" transform="translate(-160.000000, -16.000000)">
            <g id="Top">
                <g id="logo" transform="translate(160.000000, 16.000000)">
                    <polygon id="Fill-3" fill="#FFFFFF" points="0.921906485 25.0500766 5.0197668 25.0500766 5.0197668 8.24671971 0.921906485 8.24671971"></polygon>
                    <path d="M2.97069653,0.291479369 C4.50655351,0.291479369 5.75154759,1.53647345 5.75154759,3.07233042 C5.75154759,4.60818739 4.50655351,5.85346169 2.97069653,5.85346169 C1.43483956,5.85346169 0.189845484,4.60818739 0.189845484,3.07233042 C0.189845484,1.53647345 1.43483956,0.291479369 2.97069653,0.291479369" id="Fill-4" fill="#FFFFFF"></path>
                    <path d="M65.3775728,7.94607732 C64.6473332,7.95364312 63.4544591,7.89956167 62.5619751,8.15623837 C62.5619751,8.15623837 61.0499364,8.45802964 59.9481321,9.97931545 L59.9481321,8.21088025 L55.8502718,8.21088025 L55.8502718,25.0534672 L59.9481321,25.0534672 L59.9481321,14.2738865 C59.9481321,14.2738865 60.6284935,12.4059751 63.2459793,11.993499 C63.2459793,11.993499 64.1872206,11.8786109 65.3761717,11.9562304 C65.3826167,11.8449852 65.3770124,8.16660632 65.3775728,7.94607732" id="Fill-6" fill="#FFFFFF"></path>
                    <path d="M53.7566193,14.06961 C53.5316069,10.6229687 51.2374888,7.99343361 47.7227554,7.93879174 L46.7414434,7.93879174 C45.1212418,7.98923039 43.585665,8.66090511 42.4317407,9.7349682 L42.4317407,8.25291246 L38.3341606,8.25291246 L38.3341606,25.0590715 L42.4320209,25.0590715 L42.4320209,14.2887379 C42.7733225,13.3556228 43.5346659,12.5570108 44.4462045,12.1529412 C47.1729741,10.944375 49.6915441,12.8083634 49.6915441,15.4025915 L49.6923848,25.05711 L53.7767948,25.0509453 L53.7566193,14.06961 Z" id="Fill-8" fill="#FFFFFF"></path>
                    <path d="M19.9165707,8.25316465 L14.3537477,8.25316465 L14.3537477,6.88599695 C14.3537477,5.4000182 15.5242047,4.18864989 16.9916892,4.1127117 L18.7211746,4.1166347 L18.7211746,0.188584518 L16.4155677,0.188584518 C12.9958271,0.188584518 10.2317889,2.88985458 10.2317889,6.30959523 L10.2317889,8.11053535 L10.2317889,8.25288444 L6.69940195,8.25288444 L6.69940195,12.0837001 L10.2317889,12.0837001 L10.2317889,25.0500766 L14.3237647,25.0500766 L14.3237647,12.0837001 L17.5549209,12.0837001 L19.9165707,8.25316465 Z" id="Fill-10" fill="#FFFFFF"></path>
                    <path d="M27.7342536,21.250645 C25.2313756,21.250645 23.2023407,19.192748 23.2023407,16.6540025 C23.2023407,14.1155372 25.2313756,12.0576401 27.7342536,12.0576401 C29.5388365,12.0576401 31.0926272,13.1303021 31.821746,14.679049 L31.821746,18.6292361 C31.0926272,20.177983 29.5388365,21.250645 27.7342536,21.250645 Z M31.821746,8.25288444 L31.821746,9.29976669 C30.7650562,8.6191251 29.6447577,7.93876372 27.2881517,7.93876372 C22.2913625,7.98331786 19.0495583,11.8942749 18.9716586,16.7002379 C18.8929182,21.5717711 22.7223328,25.4463003 27.593866,25.3695214 C29.3849986,25.3415 30.627751,24.7707025 31.821746,24.0847369 L31.821746,25.0584831 L35.9137218,25.0584831 L35.9137218,8.25288444 L31.821746,8.25288444 Z" id="Fill-12" fill="#FFFFFF"></path>
                    <path d="M115.745449,15.3453996 C115.745449,20.3884243 114.674748,22.8226497 110.261646,25.3706423 L108.812095,23.033091 C111.654874,21.4165321 113.326635,19.0150918 113.223236,15.8085946 L113.21511,8.25344486 L115.745449,8.25316465 L115.745449,15.3453996 Z" id="Fill-14" fill="#F13B03"></path>
                    <path d="M102.528336,10.8153922 L95.0763053,10.8153922 L95.0768657,12.0421723 L92.8337468,12.0416119 L92.8256205,10.8153922 L89.9343649,10.8153922 L89.935766,8.8519275 L92.8337468,8.8519275 L92.8337468,7.5951644 L95.0768657,7.5951644 L95.0763053,8.8519275 L102.526655,8.84884514 L102.528896,7.5951644 L104.767252,7.59488419 L104.767252,8.8519275 L107.665233,8.8519275 L107.665233,10.8153922 L104.767252,10.8153922 L104.767252,12.0746772 L102.528896,12.0749574 L102.528336,10.8153922 Z M89.9388483,15.0298218 L95.0768657,15.0298218 L95.0768657,13.0655165 L89.9388483,13.0655165 L89.9388483,15.0298218 Z" id="Fill-16" fill="#F13B03"></path>
                    <path d="M89.9395208,16.4504825 L94.0225298,16.4504825 C94.6608589,16.4504825 95.7590205,16.7528342 95.1733717,18.5260331 C94.7042922,19.8363172 93.6929972,22.027036 92.6164122,25.0463498 L89.934477,25.0480311 C91.5454315,20.9131824 92.5113317,18.5725487 92.562611,18.4201119 L89.934477,18.4201119 L89.9395208,16.4504825 Z" id="Fill-18" fill="#F13B03"></path>
                    <path d="M76.8339056,20.2263481 C78.9629772,21.4405185 80.8709593,22.2422129 82.4827545,22.6474034 C83.8796249,22.9982322 85.5443807,23.3426162 87.6216125,23.5152284 L87.6230136,25.3657666 C84.8785905,25.1572868 82.405135,24.601621 80.172384,23.8346732 C78.6816416,23.3224407 77.9183366,22.9197721 77.323721,22.5964043 C76.4505718,22.1214403 75.811402,21.7462328 75.4280683,21.4777871 L76.8339056,20.2263481 Z" id="Fill-20" fill="#F13B03"></path>
                    <path d="M75.0722236,17.9090002 C79.5310005,17.9025553 82.8537868,17.9090002 85.0557142,17.9090002 C85.792679,17.9090002 86.5503796,18.2337691 85.9448356,19.4770819 C85.7540093,19.8688221 84.3501335,21.4015967 82.4822221,22.513769 C81.7323674,22.9601511 81.1685754,23.4300712 79.8613736,23.8529152 C77.7639663,24.5313151 75.3698116,25.1127607 72.4617431,25.3660748 L72.4617431,23.5334704 C75.5513908,23.2504535 78.3731532,22.5866248 80.3338157,21.5167649 C80.9979246,21.1544473 82.0470486,20.2860618 82.4797001,19.7292751 L75.0747455,19.7292751 L75.0722236,17.9090002 Z" id="Fill-22" fill="#F13B03"></path>
                    <path d="M78.0892396,14.5620874 C77.6341709,16.3862853 76.9028104,18.0656122 75.5922461,19.6908577 C74.3122252,21.277994 72.5505151,22.5330758 70.3001106,23.3190781 L70.3001106,20.9762027 C72.4619673,19.8119105 73.8919031,18.3528323 74.4601785,17.2252482 C75.0578766,16.0385388 75.3714369,15.1272805 75.5179892,14.5620874 C75.7267492,14.5620874 77.8451726,14.5620874 78.0892396,14.5620874" id="Fill-24" fill="#F13B03"></path>
                    <polygon id="Fill-26" fill="#F13B03" points="70.2999424 15.326261 87.6244988 15.3273818 87.6225373 17.1448546 70.2999424 17.1448546"></polygon>
                    <path d="M85.5509938,10.8238546 L84.8465339,11.9746966 L86.3669791,11.9746966 C87.0703181,11.9746966 87.6245828,12.4552648 87.6245828,13.1588841 L87.6251433,14.5619192 L85.1054523,14.5619192 L85.1054523,13.7966528 L72.8118714,13.7983341 L72.8099099,14.5619192 L70.2994661,14.5619192 L70.3000265,11.9746966 L73.2114576,11.9746966 L72.5820953,10.9510721 L75.1071103,10.9510721 L75.7563679,11.9746966 L78.0981224,11.9746966 L77.4710018,10.9510721 L79.9943355,10.9510721 L80.6407909,11.9746966 L82.3002226,11.9746966 L83.0279403,10.8238546" id="Fill-28" fill="#F13B03"></path>
                    <path d="M70.2999704,8.36900542 L80.9310374,8.36900542 C83.0940149,8.4275703 85.6083817,8.23646385 87.6231257,7.71974788 L87.6231257,9.59354382 C85.6949681,10.0236734 83.2125457,10.255411 81.45644,10.2038515 L70.2999704,10.1909616 L70.2999704,8.36900542 Z" id="Fill-30" fill="#F13B03"></path>
                    <path d="M123.437736,22.5928736 C122.207032,22.5928736 121.209748,21.5953091 121.209748,20.3648862 L121.209748,8.25288444 L118.686975,8.25288444 L118.686975,21.268859 C118.748062,23.3668267 120.463817,25.0497964 122.576636,25.0497964 L122.891037,25.0497964 L125.537665,25.0500766 L127.046061,22.5928736 L123.437736,22.5928736 Z" id="Fill-32" fill="#F13B03"></path>
                    <path d="M99.8216298,23.0325866 C99.2575575,23.0325866 98.8002471,22.5752761 98.8002471,22.0112039 L98.8002471,15.0296537 L103.712411,15.0296537 L103.712411,17.5535478 C103.763691,18.2249423 103.185888,18.4883442 102.566053,18.4367847 L101.783693,18.4367847 L100.573446,20.3999691 L103.426312,20.3999691 C105.441056,20.4518088 106.299074,19.7069981 106.247514,17.6925343 L106.247514,14.2338438 C106.247514,13.5302246 105.831956,13.0656286 105.128617,13.0656286 L98.8002471,13.0642275 L98.8002471,13.0633869 L96.2741112,13.0633869 L96.2741112,13.0636671 L96.2735508,13.0636671 L96.2741112,13.0642275 L96.2741112,23.0325866 L96.2741112,23.094514 C96.2741112,24.1730605 97.1486614,25.0476107 98.2274882,25.0476107 L98.8002471,25.0476107 L107.666241,25.0476107 L107.666241,23.0325866 L99.8216298,23.0325866 Z" id="Fill-34" fill="#F13B03"></path>
                </g>
            </g>
        </g>
    </g>
</svg>