<?xml version="1.0" encoding="UTF-8"?>
<svg width="96px" height="96px" viewBox="0 0 96 96" version="1.1" xmlns="http://www.w3.org/2000/svg" xmlns:xlink="http://www.w3.org/1999/xlink">
    <!-- Generator: Sketch 49.3 (51167) - http://www.bohemiancoding.com/sketch -->
    <title>icon</title>
    <desc>Created with Sketch.</desc>
    <defs>
        <linearGradient x1="39.5972104%" y1="0%" x2="39.5972103%" y2="100%" id="linearGradient-1">
            <stop stop-color="#FFFFFF" stop-opacity="0" offset="0%"></stop>
            <stop stop-color="#FFFFFF" offset="100%"></stop>
        </linearGradient>
    </defs>
    <g id="页面" stroke="none" stroke-width="1" fill="none" fill-rule="evenodd">
        <g id="下载浮层" transform="translate(-1160.000000, -80.000000)">
            <g transform="translate(991.000000, 56.000000)" id="Group-13">
                <g transform="translate(169.000000, 24.000000)">
                    <rect id="Rectangle-47" fill="#121212" x="0" y="0" width="96" height="96"></rect>
                    <path d="M18.0645161,18.0645161 L18.0645161,77.9354839 L77.9354839,77.9354839 L77.9354839,18.0645161 L18.0645161,18.0645161 Z M80,16 L80,80 L16,80 L16,16 L80,16 Z" id="Combined-Shape" fill="#FFFFFF" fill-rule="nonzero"></path>
                    <polygon id="Rectangle-2-Copy-2" fill="url(#linearGradient-1)" points="26.212766 26.212766 33.0280851 26.212766 43.9148936 43.9148936 37.0995745 43.9148936"></polygon>
                    <path d="M26.7020962,70.2600722 L26.7020962,59.3565156 L29.4412215,59.3565156 L29.4412215,70.2600722 L26.7020962,70.2600722 Z M28.0715652,54.1944272 C29.0981752,54.1944272 29.9303644,55.0022933 29.9303644,55.998898 C29.9303644,56.9955026 29.0981752,57.8035506 28.0715652,57.8035506 C27.0449551,57.8035506 26.212766,56.9955026 26.212766,55.998898 C26.212766,55.0022933 27.0449551,54.1944272 28.0715652,54.1944272 Z M69.7860798,59.1614313 C69.7857052,59.3045307 69.7894512,61.6913997 69.7851433,61.7635858 C68.9904148,61.7132192 68.3612626,61.7877691 68.3612626,61.7877691 C66.6116613,62.0554213 66.1568886,63.2674933 66.1568886,63.2674933 L66.1568886,70.2622724 L63.4177633,70.2622724 L63.4177633,59.3332596 L66.1568886,59.3332596 L66.1568886,60.4807823 C66.8933657,59.4936328 67.9040549,59.297803 67.9040549,59.297803 C68.5006164,59.1312477 69.297967,59.1663406 69.7860798,59.1614313 Z M62.018307,63.13494 L62.0317928,70.2606359 L59.3016581,70.2646361 L59.3010962,63.9999004 C59.3010962,62.3165277 57.617613,61.1070014 55.7949634,61.8912297 C55.1856653,62.1534271 54.6767619,62.6716397 54.4486263,63.2771302 L54.4486263,70.2659089 L51.709501,70.2659089 L51.709501,59.360534 L54.448439,59.360534 L54.448439,60.3222275 C55.2197545,59.625277 56.2461773,59.1894329 57.3291657,59.1567037 L57.9851023,59.1567037 C60.3344492,59.1921604 61.8679023,60.8984435 62.018307,63.13494 Z M39.3986649,59.3606976 L37.8200717,61.8462998 L35.6602759,61.8462998 L35.6602759,70.2600722 L32.9250839,70.2600722 L32.9250839,61.8462998 L30.5639369,61.8462998 L30.5639369,59.3605158 L32.9250839,59.3605158 L32.9250839,59.2681467 L32.9250839,58.0995318 C32.9250839,55.8804909 34.7726449,54.1276596 37.0584959,54.1276596 L38.5996285,54.1276596 L38.5996285,56.6765382 L37.4435918,56.6739926 C36.4626837,56.7232683 35.6803173,57.509315 35.6803173,58.473554 L35.6803173,59.3606976 L39.3986649,59.3606976 Z M47.3564196,59.3605158 L50.0916115,59.3605158 L50.0916115,70.2655271 L47.3564196,70.2655271 L47.3564196,69.6336714 C46.5583197,70.0787887 45.727629,70.4491744 44.5303855,70.4673573 C41.2741154,70.5171784 38.7144268,68.0030291 38.767059,64.8419323 C38.8191294,61.7233834 40.9860427,59.1855963 44.3260374,59.1566855 C45.9012592,59.1566855 46.6500983,59.5981663 47.3564196,60.0398289 L47.3564196,59.3605158 Z M44.6242245,67.7946531 C45.8304586,67.7946531 46.8690561,67.0986117 47.3564196,66.093643 L47.3564196,63.5303998 C46.8690561,62.5254311 45.8304586,61.8293897 44.6242245,61.8293897 C42.9512303,61.8293897 41.5949662,63.1647417 41.5949662,64.8119305 C41.5949662,66.4593011 42.9512303,67.7946531 44.6242245,67.7946531 Z" id="Combined-Shape" fill="#FFFFFF"></path>
                </g>
            </g>
        </g>
    </g>
</svg>