<?xml version="1.0" encoding="UTF-8"?>
<svg width="100px" height="129px" viewBox="0 0 100 129" version="1.1" xmlns="http://www.w3.org/2000/svg" xmlns:xlink="http://www.w3.org/1999/xlink">
    <!-- Generator: Sketch 49.3 (51167) - http://www.bohemiancoding.com/sketch -->
    <title>logo-ifanr talk-默认</title>
    <desc>Created with Sketch.</desc>
    <defs>
        <linearGradient x1="14.5443488%" y1="0%" x2="14.5443484%" y2="100%" id="linearGradient-1">
            <stop stop-color="#EC1700" offset="0%"></stop>
            <stop stop-color="#FC7C0A" offset="100%"></stop>
        </linearGradient>
    </defs>
    <g id="页面" stroke="none" stroke-width="1" fill="none" fill-rule="evenodd">
        <g id="主页" transform="translate(-976.000000, -2719.000000)">
            <g id="头部背景" transform="translate(0.000000, 56.000000)">
                <g id="Group-12" transform="translate(0.000000, 320.000000)">
                    <g id="ifanrvote" transform="translate(960.000000, 2343.000000)">
                        <g id="ifanr-talk" transform="translate(16.000000, 0.000000)">
                            <path d="M0,0 L100,0 L100,129 L0,129 L0,0 Z M2,2 L2,127 L98,127 L98,2 L2,2 Z" id="Rectangle-18" fill="#F13B03" fill-rule="nonzero"></path>
                            <polygon id="Rectangle-2-Copy-2" fill="url(#linearGradient-1)" points="12 12 24.32 12 44 44 31.68 44"></polygon>
                            <path d="M19.6335079,115.256852 L15.1247305,115.256852 L15.1247305,101.114567 L10,101.114567 L10,97.4804435 L24.7705574,97.4804435 L24.7705574,101.114567 L19.6335079,101.114567 L19.6335079,115.256852 Z M35.9193101,97 C41.2657838,97 44.6658454,100.584848 44.6658454,106.362488 C44.6658454,112.152448 41.2657838,115.737296 35.9193101,115.737296 C30.5481983,115.737296 27.1481367,112.152448 27.1481367,106.362488 C27.1481367,100.584848 30.5851555,97 35.9193101,97 Z M35.9193101,100.744995 C33.4185402,100.744995 31.7554666,102.937789 31.7554666,106.362488 C31.7554666,109.799507 33.3939021,111.992301 35.9193101,111.992301 C38.4200801,111.992301 40.0708346,109.799507 40.0708346,106.362488 C40.0708346,102.937789 38.407761,100.744995 35.9193101,100.744995 Z M48.0166307,97.4804435 L55.802279,97.4804435 C59.6211888,97.4804435 62.2081922,99.9688944 62.2081922,103.787804 C62.2081922,107.569757 59.4856791,110.045889 55.5312596,110.045889 L52.5377271,110.045889 L52.5377271,115.256852 L48.0166307,115.256852 L48.0166307,97.4804435 Z M52.5377271,100.954419 L52.5377271,106.633508 L54.5826917,106.633508 C56.5044657,106.633508 57.6378195,105.647983 57.6378195,103.800123 C57.6378195,101.927626 56.5167847,100.954419 54.6073298,100.954419 L52.5377271,100.954419 Z M70.0431167,115.256852 L65.5220203,115.256852 L65.5220203,97.4804435 L70.0431167,97.4804435 L70.0431167,115.256852 Z M81.9926086,115.737296 C76.670773,115.737296 73.3939021,112.164767 73.3939021,106.362488 C73.3939021,100.560209 76.658454,97 81.9926086,97 C86.4644287,97 89.8521712,99.9812134 89.9876809,104.009547 L85.6390514,104.009547 C85.4049892,102.075454 83.9390206,100.769634 81.9926086,100.769634 C79.5164767,100.769634 78.0012319,102.888512 78.0012319,106.350169 C78.0012319,109.824145 79.5164767,111.967662 82.0049276,111.967662 C83.9513397,111.967662 85.4049892,110.711118 85.6636896,108.801663 L90,108.801663 C89.8521712,112.866954 86.5506621,115.737296 81.9926086,115.737296 Z" id="TOPIC" fill="#FD4811"></path>
                            <path d="M11.03125,84 L11.03125,71.2382812 L15.1796875,71.2382812 L15.1796875,84 L11.03125,84 Z M13.1054688,70.2070312 C11.8984375,70.2070312 10.9726562,69.3164062 10.9726562,68.1679688 C10.9726562,67.0195312 11.8984375,66.140625 13.1054688,66.140625 C14.3125,66.140625 15.2265625,67.0195312 15.2265625,68.1679688 C15.2265625,69.3164062 14.3125,70.2070312 13.1054688,70.2070312 Z M18.25,84 L18.25,74.296875 L16.5507812,74.296875 L16.5507812,71.3320312 L18.25,71.3320312 L18.25,70.59375 C18.25,68.0742188 19.46875,66.9140625 22.8085938,66.9140625 C23.546875,66.9140625 24.3671875,66.9960938 24.8242188,67.0898438 L24.8242188,69.6679688 C24.5898438,69.6328125 24.2382812,69.5976562 23.9101562,69.5976562 C22.7734375,69.5976562 22.2929688,70.0429688 22.2929688,70.78125 L22.2929688,71.3320312 L24.7773438,71.3320312 L24.7773438,74.296875 L22.4101562,74.296875 L22.4101562,84 L18.25,84 Z M31.6914062,81.328125 C32.9570312,81.328125 34.0585938,80.5546875 34.0585938,79.4179688 L34.0585938,78.5390625 L31.7382812,78.6914062 C30.6484375,78.7734375 30.0390625,79.2773438 30.0390625,80.0273438 C30.0390625,80.8359375 30.7070312,81.328125 31.6914062,81.328125 Z M30.2148438,84.1875 C27.8476562,84.1875 25.9257812,82.6171875 25.9257812,80.3085938 C25.9257812,77.9179688 27.765625,76.5820312 31.0703125,76.3828125 L34.0585938,76.2070312 L34.0585938,75.4804688 C34.0585938,74.4609375 33.3320312,73.8984375 32.2421875,73.8984375 C31.1171875,73.8984375 30.4023438,74.484375 30.2851562,75.2695312 L26.546875,75.2695312 C26.6640625,72.65625 28.890625,70.9335938 32.453125,70.9335938 C35.8632812,70.9335938 38.125,72.6796875 38.125,75.2460938 L38.125,84 L34.0820312,84 L34.0820312,82.1835938 L34,82.1835938 C33.3085938,83.4726562 31.75,84.1875 30.2148438,84.1875 Z M40.1054687,84 L40.1054687,71.2382812 L44.1484375,71.2382812 L44.1484375,73.640625 L44.2304687,73.640625 C44.8867187,71.9414062 46.2226562,70.9921875 48.1796875,70.9921875 C51.0273437,70.9921875 52.609375,72.7734375 52.609375,75.8085938 L52.609375,84 L48.4609375,84 L48.4609375,76.6992188 C48.4609375,75.2460938 47.7695312,74.3789062 46.4101562,74.3789062 C45.0859375,74.3789062 44.265625,75.375 44.265625,76.78125 L44.265625,84 L40.1054687,84 Z M54.5546875,84 L54.5546875,71.2382812 L58.5976562,71.2382812 L58.5976562,73.6523438 L58.6796875,73.6523438 C59.1484375,71.9296875 60.1796875,71.0507812 61.6796875,71.0507812 C62.1015625,71.0507812 62.453125,71.109375 62.734375,71.2148438 L62.734375,74.7539062 C62.3828125,74.6132812 61.9023438,74.5195312 61.4101562,74.5195312 C59.6640625,74.5195312 58.7148438,75.5039062 58.7148438,77.2851562 L58.7148438,84 L54.5546875,84 Z" id="ifanr" fill="#FFFFFF"></path>
                        </g>
                    </g>
                </g>
            </g>
        </g>
    </g>
</svg>