<?xml version="1.0" encoding="UTF-8"?>
<svg width="80px" height="80px" viewBox="0 0 80 80" version="1.1" xmlns="http://www.w3.org/2000/svg" xmlns:xlink="http://www.w3.org/1999/xlink">
    <!-- Generator: Sketch 49.2 (51160) - http://www.bohemiancoding.com/sketch -->
    <title>logo-底部-默认</title>
    <desc>Created with Sketch.</desc>
    <defs>
        <linearGradient x1="37.4145508%" y1="0%" x2="37.4145508%" y2="100%" id="linearGradient-1">
            <stop stop-color="#FFFFFF" stop-opacity="0.3" offset="0%"></stop>
            <stop stop-color="#FFFFFF" offset="100%"></stop>
        </linearGradient>
    </defs>
    <g id="页面" stroke="none" stroke-width="1" fill="none" fill-rule="evenodd">
        <g id="文章详情页" transform="translate(-160.000000, -4346.000000)">
            <g id="bottom" transform="translate(0.000000, 4306.000000)">
                <g id="logo" transform="translate(160.000000, 40.000000)">
                    <g id="Group-4">
                        <rect id="Rectangle-18" stroke="#FFFFFF" stroke-width="2" opacity="0.865206069" x="1" y="1" width="78" height="78"></rect>
                        <polygon id="Rectangle-2-Copy-2" fill="url(#linearGradient-1)" points="8 8 17.24 8 32 32 22.76 32"></polygon>
                    </g>
                    <g id="Group-3-Copy-2" transform="translate(11.000000, 47.000000)" fill="#FFFFFF">
                        <polygon id="Fill-3" points="0.815470085 22.1579829 4.44022222 22.1579829 4.44022222 7.29461538 0.815470085 7.29461538"></polygon>
                        <path d="M2.62772222,0.25782735 C3.98626068,0.25782735 5.08751709,1.35908376 5.08751709,2.71762222 C5.08751709,4.07616068 3.98626068,5.17766496 2.62772222,5.17766496 C1.26918376,5.17766496 0.16792735,4.07616068 0.16792735,2.71762222 C0.16792735,1.35908376 1.26918376,0.25782735 2.62772222,0.25782735" id="Fill-4"></path>
                        <path d="M57.8295692,7.02868291 C57.1836376,7.03537521 56.1284838,6.98753761 55.3390393,7.21458034 C55.3390393,7.21458034 54.0015692,7.48152906 53.0269709,8.82717863 L53.0269709,7.26291368 L49.4022188,7.26291368 L49.4022188,22.1609821 L53.0269709,22.1609821 L53.0269709,12.6259308 C53.0269709,12.6259308 53.6287829,10.9736744 55.9440735,10.6088197 C55.9440735,10.6088197 56.7766462,10.5071957 57.8283299,10.5758538 C57.8340308,10.4774521 57.8290735,7.22375128 57.8295692,7.02868291" id="Fill-6"></path>
                        <path d="M47.5502838,12.4452385 C47.3512496,9.39652051 45.3219932,7.07057179 42.2130444,7.02223846 L41.3450274,7.02223846 C39.9118821,7.06685385 38.5535915,7.66098205 37.5328906,8.61104188 L37.5328906,7.30009316 L33.9083863,7.30009316 L33.9083863,22.1659393 L37.5331385,22.1659393 L37.5331385,12.6390675 C37.8350359,11.8136829 38.5084803,11.1072726 39.3147795,10.7498538 C41.7267368,9.68081966 43.9545316,11.329606 43.9545316,13.6243239 L43.9552752,22.1642043 L47.5681299,22.1587513 L47.5502838,12.4452385 Z" id="Fill-8"></path>
                        <path d="M17.617153,7.30031624 L12.6965718,7.30031624 L12.6965718,6.09099145 C12.6965718,4.77657265 13.7318966,3.70505983 15.0299564,3.63788889 L16.5597684,3.64135897 L16.5597684,0.166811966 L14.5203496,0.166811966 C11.4954265,0.166811966 9.05050342,2.55621368 9.05050342,5.58113675 L9.05050342,7.17415385 L9.05050342,7.30006838 L5.92593932,7.30006838 L5.92593932,10.6886068 L9.05050342,10.6886068 L9.05050342,22.1579829 L12.6700504,22.1579829 L12.6700504,10.6886068 L15.5281615,10.6886068 L17.617153,7.30031624 Z" id="Fill-10"></path>
                        <path d="M24.532265,18.7972051 C22.3183504,18.7972051 20.5235726,16.9768974 20.5235726,14.7312564 C20.5235726,12.4858632 22.3183504,10.6655556 24.532265,10.6655556 C26.1285043,10.6655556 27.502906,11.6143761 28.1478462,12.9843162 L28.1478462,16.4784444 C27.502906,17.8483846 26.1285043,18.7972051 24.532265,18.7972051 Z M28.1478462,7.30006838 L28.1478462,8.22608547 C27.2131538,7.62402564 26.2221966,7.02221368 24.1376667,7.02221368 C19.7177692,7.06162393 16.8502393,10.5210513 16.7813333,14.7721538 C16.7116838,19.0812564 20.0989829,22.5084615 24.4080855,22.440547 C25.9924274,22.4157607 27.0917009,21.9108632 28.1478462,21.304094 L28.1478462,22.1654188 L31.7673932,22.1654188 L31.7673932,7.30006838 L28.1478462,7.30006838 Z" id="Fill-12"></path>
                    </g>
                </g>
            </g>
        </g>
    </g>
</svg>