<?xml version="1.0" encoding="UTF-8"?>
<svg width="60px" height="60px" viewBox="0 0 60 60" version="1.1" xmlns="http://www.w3.org/2000/svg" xmlns:xlink="http://www.w3.org/1999/xlink">
    <!-- Generator: Sketch 49.2 (51160) - http://www.bohemiancoding.com/sketch -->
    <title>ifanr video-推荐位-默认</title>
    <desc>Created with Sketch.</desc>
    <defs></defs>
    <g id="页面" stroke="none" stroke-width="1" fill="none" fill-rule="evenodd">
        <g id="Home" transform="translate(-818.000000, -688.000000)">
            <g id="头部背景" transform="translate(0.000000, 64.000000)">
                <g id="Group-12" transform="translate(0.000000, 336.000000)">
                    <g id="头条" transform="translate(156.000000, 0.000000)">
                        <g id="Group-2-Copy" transform="translate(646.000000, 4.000000)">
                            <g id="ifanr-video" transform="translate(16.000000, 284.000000)">
                                <rect id="Rectangle-18" stroke="#FFFFFF" opacity="0.865206069" x="0.5" y="0.5" width="59" height="59"></rect>
                                <path d="M16.1884762,39.530811 C16.1884762,37.5818608 17.7773369,36 19.7371883,36 L21.9761248,36 L21.9761248,38.2408497 L20.2015282,38.2408497 C19.4804781,38.2408497 18.8972863,38.8220147 18.8972863,39.5382342 L18.8972863,42.3949703 L21.9761248,42.3949703 L21.9761248,44.6954451 L18.8972863,44.6954451 L18.8972863,53.9078804 L16.1884762,53.9078804 L16.1884762,44.6954451 L14.3498825,44.6954451 L14.3498825,42.3949703 L16.1884762,42.3949703 L16.1884762,39.530811 Z M10.6242275,40.5375171 C9.72682434,40.5375171 9,39.8145928 9,38.9214138 C9,38.029911 9.72682434,37.3060289 10.6242275,37.3060289 C11.5206682,37.3060289 12.247252,38.029911 12.247252,38.9214138 C12.247252,39.8145928 11.5206682,40.5375171 10.6242275,40.5375171 Z M49.6122431,43.0819998 C50.1518879,42.6401994 50.7134265,42.2661658 51.9363488,42.2661658 L53,42.2661658 L53,44.6983426 C51.1334978,44.6983426 49.6134461,44.8707524 49.6134461,46.4317804 L49.6122431,53.9076649 L46.9027112,53.9076649 L46.9027112,42.3949943 L49.6122431,42.3949943 L49.6122431,43.0819998 Z M31.3151079,43.2080985 L31.3151079,42.3948985 L34.0251209,42.3948985 L34.0251209,53.908527 L31.3151079,53.908527 L31.3151079,53.0730574 C30.3991793,53.6587721 29.3093037,54 28.1388302,54 C24.8862852,54 22.2506147,51.3767356 22.2506147,48.1397398 C22.2506147,44.9037019 24.8862852,42.2811558 28.1388302,42.2811558 C29.3093037,42.2811558 30.3991793,42.6221443 31.3151079,43.2080985 Z M28.1388302,51.431811 C26.3117848,51.431811 24.8304682,49.9591431 24.8304682,48.1402187 C24.8304682,46.3224916 26.3117848,44.8498238 28.1388302,44.8498238 C29.964432,44.8498238 31.4457486,46.3224916 31.4457486,48.1402187 C31.4457486,49.9591431 29.964432,51.431811 28.1388302,51.431811 Z M11.9789453,42.3949464 L11.9789453,53.8568901 L9.26893222,53.8568901 L9.26893222,49.1397651 L9.26893222,42.3949464 L11.9789453,42.3949464 Z M41.1828852,42.281084 C43.5899946,42.281084 45.5423877,43.5820603 45.5423877,46.2501034 L45.5423877,53.9084551 L42.8330964,53.9084551 L42.8330964,46.942856 C42.8249163,45.5707606 42.0454026,44.8499914 40.4664062,44.8499914 C38.902567,44.8499914 38.1004378,45.8396721 38.1004378,46.942856 L38.1004378,48.0467582 L38.1004378,53.9077368 L35.3841694,53.9077368 L35.3841694,42.3950661 L38.1004378,42.3950661 L38.1004378,43.1994061 L38.1004378,43.2120974 C38.8893345,42.6366794 39.9792101,42.281084 41.1828852,42.281084 Z" id="Combined-Shape" fill="#FFFFFF"></path>
                                <path d="M8.55162738,8.80858508 L19.2122302,19.4691879 C19.6027545,19.8597122 19.6027545,20.4928772 19.2122302,20.8834015 C19.077325,21.0183066 18.906644,21.1118053 18.7203296,21.1528633 L5.04640804,24.1661821 C4.50706408,24.2850372 3.97348831,23.9441636 3.85463322,23.4048196 C3.82339139,23.2630496 3.82339139,23.1161773 3.85463322,22.9744072 L6.86795197,9.30048567 C6.98680707,8.76114171 7.52038283,8.42026813 8.05972679,8.53912323 C8.24604114,8.58018128 8.41672223,8.67367993 8.55162738,8.80858508 Z" id="Rectangle-31" fill="#FFFFFF" transform="translate(12.010408, 16.010408) rotate(-135.000000) translate(-12.010408, -16.010408) "></path>
                            </g>
                        </g>
                    </g>
                </g>
            </g>
        </g>
    </g>
</svg>